<svg width="371" height="300" viewBox="0 0 371 300" fill="none" xmlns="http://www.w3.org/2000/svg">
<g opacity="0.2">
<path d="M365.936 102V101.892C368.771 85.0161 370.161 73.7833 370.161 67.6562C370.161 58.2507 368.824 53.1448 366.15 52.0161H363.262H363.155L356.363 54.596L352.619 56.1547C351.014 57.2296 349.624 58.3581 348.34 59.5405L341.334 65.9901L328.444 81.6302L328.337 81.7376V89.262C328.337 108.557 327 123.283 324.326 133.065V138.762C324.326 140.805 323.524 143.761 321.919 147.845C321.919 147.845 319.566 153.65 319.138 154.725C314.86 156.068 311.009 157.036 307.746 157.519C302.612 158.433 298.119 158.702 294.375 158.433L279.721 157.09L261.269 159.293C261.376 159.293 251.749 158.433 251.749 158.433C245.813 158.433 238.967 159.616 231.265 161.98C227.307 160.798 226.612 159.938 226.505 159.562C226.719 159.347 227.147 158.809 227.147 158.809L229.821 142.901L233.886 122.907C236.239 112.427 237.95 105.386 238.967 102.107C240.945 93.1856 242.55 85.2849 243.62 78.6204C245.331 74.697 246.187 71.5259 246.187 69.1073C246.187 64.4314 244.689 61.0454 241.801 58.8956C238.967 56.7995 234.902 55.7246 229.714 55.7246C224.954 55.7246 221.371 56.477 219.017 57.8744L207.732 66.7963L207.625 66.9039V67.0113C206.556 69.5374 206.021 71.311 205.914 72.3859C205.486 73.6758 205.326 76.6856 205.326 81.1465L203.828 95.2279C200.833 123.23 197.57 146.501 194.147 164.506C192.864 168.484 190.564 172.783 187.302 177.19C183.451 182.404 181.098 186.112 180.242 188.316V188.477V188.638C181.579 194.067 185.323 201.914 191.848 212.609C191.313 213.361 190.992 214.598 190.992 216.64C190.992 216.586 190.404 221.047 190.404 221.047V221.155V221.262C190.618 221.853 190.832 223.358 190.832 226.959C190.832 231.528 191.527 237.977 192.917 246.146L194.575 260.12C196.073 270.816 196.875 272.804 197.41 273.342C198.212 274.793 200.298 275.546 203.561 275.546C212.225 275.546 220.14 271.622 226.986 263.936C230.998 259.529 235.811 251.844 241.427 241.094H241.48V240.879C241.48 239.267 239.822 238.461 236.613 238.461C236.56 238.461 234.742 238.783 234.742 238.783L233.351 239.106L231.265 242.116L228.27 245.072C228.27 245.072 227.682 245.233 226.505 245.233C222.547 245.233 220.515 238.461 220.515 225.132C220.515 225.132 223.029 201.269 223.189 199.549C223.403 199.334 228.591 194.389 228.591 194.389C228.591 194.389 235.169 189.928 235.758 189.552C242.871 189.552 249.556 188.101 255.546 185.306C259.397 183.533 269.987 181.759 286.995 180.093L300.793 178.265C300.793 178.265 311.704 176.277 314.325 175.847C314.271 177.782 314.111 179.878 313.736 182.296L311.811 191.272L306.142 217.769L301.489 236.526C301.489 239.213 300.205 245.072 297.798 254.101C297.798 254.208 296.568 274.202 296.568 274.202L294.803 279.093L293.252 284.467L294.803 291.078L295.552 297.205V297.42L295.766 297.528C297.424 298.495 298.708 298.979 299.67 299.086L305.5 300H305.66L311.009 297.259C311.062 297.259 314.378 295.002 314.378 295.002C316.09 292.637 317.801 288.176 319.459 281.78L322.615 270.225C325.77 260.497 327.856 253.402 329.033 248.511L336.039 228.572L337.269 220.94C337.697 218.199 337.857 215.888 337.857 213.791C337.857 212.394 338.553 210.567 339.943 208.417C341.387 206.16 342.243 204.386 342.51 203.257C342.51 200.731 343.473 195.84 345.345 188.961L349.517 173.321C351.175 169.075 352.031 164.291 352.031 159.186C356.095 150.64 360.214 135.484 364.278 114.146L364.92 110.975L365.829 107.589C365.829 107.589 365.027 103.666 364.92 103.29C365.08 103.075 365.776 102.161 365.776 102.161" fill="#5BB431"/>
<path d="M172.52 47.1774C168.504 47.1774 165.023 47.5548 162.346 48.3635L159.241 49.4956L146.337 54.2939L128.988 60.7633C105.161 70.0901 84.3859 81.4118 67.1981 94.4586C54.1869 106.427 45.0308 119.959 39.9441 134.623C39.9441 139.583 39.7299 142.764 39.3551 144.166C39.944 149.557 41.4969 154.032 43.96 157.644C46.2624 161.094 48.1898 162.82 49.6891 163.143C49.582 163.682 49.475 164.653 49.475 164.653C49.475 167.456 50.6529 170.098 52.9554 172.362C63.5571 180.826 76.3006 194.197 90.704 212.257C94.7198 217.325 96.7009 221.8 96.7009 225.52C96.7009 225.52 96.5404 227.029 96.4333 227.622C94.5592 228.755 92.8458 229.995 91.1324 231.504C88.6694 233.607 87.2236 235.601 86.8488 237.434C86.0456 238.028 85.5102 238.459 85.5102 238.459C84.5464 239.214 83.6897 240.292 82.833 241.586V241.693L82.7795 244.174C82.4583 244.443 76.5148 249.187 76.5148 249.187L67.68 255.333C65.4312 256.843 63.1287 257.813 60.7728 258.353C60.505 258.029 59.916 257.328 59.916 257.328C59.916 257.328 59.7018 257.112 59.5412 256.951C59.7554 256.412 60.3444 255.549 62.1114 254.309L72.2847 250.751C74.5336 249.511 75.5509 247.893 75.4438 245.953C75.2297 243.419 73.7304 242.017 71.1068 242.017L67.9477 242.125L27.4146 257.813L20.2397 260.563L14.0286 263.744L8.19227 266.439L2.57018 270.537C0.856767 272.262 0 274.796 0 278.246C0 280.456 0.642616 282.182 1.92768 283.206C3.58755 284.985 6.26471 286.495 9.90572 287.627L18.6871 290.323C23.6667 290.323 27.843 289.73 31.2698 288.49L44.4418 283.853L54.3476 279.918C59.2201 276.575 66.0736 272.909 74.6407 268.919L93.0599 260.293C98.3073 256.951 102.055 254.363 104.251 252.584L109.07 248.163C110.141 247.193 111.372 246.276 112.711 245.413C114.585 245.144 116.459 244.928 118.333 244.82C119.993 244.82 122.242 244.497 124.865 244.12C129.577 243.365 135.413 242.502 140.554 243.527H140.821L141.036 243.311L141.999 242.125C143.231 241.047 143.927 240.669 144.248 240.561L149.924 240.993L154.475 242.179H154.689L156.349 241.37L158.545 240.022C160.793 238.081 161.918 236.464 162.025 235.062C162.079 234.415 161.864 233.822 161.436 233.283H161.329L161.222 233.175C150.031 228.755 140.768 225.628 133.379 223.848C132.629 223.363 131.558 222.986 130.166 222.932C130.862 220.021 131.291 216.894 131.291 213.551C131.291 205.842 128.132 197.27 121.92 187.997L103.769 166.701C98.0396 160.016 93.1136 153.061 89.1513 145.945C86.9025 142.063 85.5102 139.368 84.8141 137.75C82.8865 133.006 81.8692 128.262 81.8692 123.787C84.3858 116.077 89.7402 108.422 97.7183 101.198C106.5 93.2186 115.709 87.6118 125.079 84.4309L125.99 84.1075C125.99 84.1075 126.525 84.3771 127.114 84.8084C126.846 86.6953 125.347 88.3665 122.616 89.7682L113.3 94.5665C110.301 96.8308 108.534 98.8256 107.838 100.659V102.06C107.838 104.594 109.284 106.212 112.229 106.859C112.39 106.859 115.816 106.265 115.816 106.265C134.235 100.281 154.689 89.8761 176.589 75.212C177.178 75.0502 177.713 74.6728 178.088 74.1876C178.41 73.7024 179.106 72.3546 179.909 70.4676C181.676 66.3703 182.907 63.2973 183.55 61.4104C183.764 60.386 183.871 59.2537 183.871 57.9059C183.871 50.7895 180.016 47.1774 172.306 47.1774" fill="#2E2624"/>
<path d="M48.7642 58.6874C48.7642 58.6874 52.4998 69.3189 63.165 65.8288C73.343 62.4461 93.8613 59.0633 94.0778 59.0096H94.1862L108.1 45.2102C108.154 45.1028 118.548 24.5917 118.548 24.5917V24.4844V7.03389L107.883 0H93.8614L76.5371 10.3091L59.1588 20.6184C59.1588 20.6184 55.8564 30.4982 55.7481 30.874C54.7736 31.3573 44.7581 36.7804 44.7581 44.9955C44.7581 46.0694 44.9205 47.197 45.2995 48.3783L48.7642 58.6337V58.6874Z" fill="#2E2624"/>
</g>
</svg>
