<svg width="291" height="40" viewBox="0 0 291 40" fill="none" xmlns="http://www.w3.org/2000/svg">
<path d="M48.7896 13.6293V13.6149C49.1685 11.3673 49.3544 9.87119 49.3544 9.05515C49.3544 7.80246 49.1756 7.12243 48.8182 6.97211H48.4321H48.4178L47.5098 7.31571L47.0093 7.5233C46.7948 7.66647 46.6089 7.81677 46.4373 7.97425L45.5007 8.83325L43.7776 10.9163L43.7633 10.9306V11.9328C43.7633 14.5026 43.5846 16.4639 43.2271 17.7667V18.5255C43.2271 18.7975 43.1199 19.1912 42.9054 19.7352C42.9054 19.7352 42.5908 20.5083 42.5336 20.6515C41.9616 20.8304 41.4468 20.9593 41.0107 21.0237C40.3243 21.1454 39.7238 21.1812 39.2233 21.1454L37.2642 20.9665L34.7976 21.2599C34.8119 21.2599 33.525 21.1454 33.525 21.1454C32.7313 21.1454 31.8162 21.3029 30.7866 21.6179C30.2575 21.4604 30.1646 21.3458 30.1503 21.2957C30.1789 21.2671 30.2361 21.1955 30.2361 21.1955L30.5936 19.0767L31.137 16.4138C31.4516 15.018 31.6803 14.0802 31.8162 13.6436C32.0807 12.4553 32.2952 11.4031 32.4382 10.5154C32.667 9.99289 32.7814 9.57054 32.7814 9.24842C32.7814 8.62565 32.5812 8.17469 32.1951 7.88836C31.8162 7.60919 31.2728 7.46603 30.5793 7.46603C29.943 7.46603 29.4639 7.56624 29.1494 7.75235L27.6408 8.94062L27.6265 8.95495V8.96926C27.4835 9.3057 27.412 9.54192 27.3977 9.68508C27.3405 9.85688 27.319 10.2577 27.319 10.8519L27.1188 12.7273C26.7185 16.4568 26.2823 19.5563 25.8247 21.9543C25.6531 22.484 25.3457 23.0566 24.9096 23.6436C24.3948 24.338 24.0802 24.8319 23.9658 25.1254V25.1469V25.1683C24.1446 25.8913 24.645 26.9364 25.5173 28.3609C25.4458 28.4611 25.4029 28.6257 25.4029 28.8978C25.4029 28.8906 25.3243 29.4847 25.3243 29.4847V29.499V29.5134C25.3529 29.5921 25.3814 29.7925 25.3814 30.2721C25.3814 30.8806 25.4744 31.7396 25.6603 32.8276L25.8819 34.6888C26.0821 36.1132 26.1894 36.3781 26.2609 36.4497C26.3681 36.643 26.6469 36.7432 27.0831 36.7432C28.2413 36.7432 29.2995 36.2206 30.2147 35.197C30.7509 34.61 31.3944 33.5864 32.1451 32.1547H32.1522V32.1261C32.1522 31.9114 31.9306 31.804 31.5016 31.804C31.4944 31.804 31.2514 31.8469 31.2514 31.8469L31.0655 31.8899L30.7866 32.2908L30.3862 32.6845C30.3862 32.6845 30.3076 32.7059 30.1503 32.7059C29.6212 32.7059 29.3495 31.804 29.3495 30.0288C29.3495 30.0288 29.6856 26.8505 29.707 26.6214C29.7356 26.5928 30.4291 25.9343 30.4291 25.9343C30.4291 25.9343 31.3086 25.3401 31.3872 25.29C32.3381 25.29 33.2318 25.0968 34.0326 24.7245C34.5474 24.4883 35.963 24.2521 38.2366 24.0302L40.0812 23.7868C40.0812 23.7868 41.5398 23.5219 41.8901 23.4647C41.883 23.7224 41.8615 24.0015 41.8115 24.3237L41.5541 25.5191L40.7962 29.0481L40.1742 31.5463C40.1742 31.9042 40.0026 32.6845 39.6808 33.887C39.6808 33.9014 39.5164 36.5642 39.5164 36.5642L39.2805 37.2156L39.0731 37.9314L39.2805 38.8119L39.3806 39.6279V39.6566L39.4092 39.6709C39.6308 39.7997 39.8024 39.8642 39.9311 39.8785L40.7104 40.0002H40.7319L41.4468 39.6351C41.454 39.6351 41.8973 39.3345 41.8973 39.3345C42.1261 39.0195 42.3548 38.4254 42.5765 37.5735L42.9983 36.0345C43.4202 34.7389 43.699 33.794 43.8563 33.1426L44.7929 30.4869L44.9573 29.4704C45.0145 29.1053 45.036 28.7975 45.036 28.5184C45.036 28.3323 45.1289 28.0889 45.3148 27.8026C45.5079 27.5019 45.6223 27.2657 45.658 27.1154C45.658 26.7789 45.7867 26.1275 46.0369 25.2113L46.5946 23.1282C46.8163 22.5627 46.9307 21.9256 46.9307 21.2456C47.474 20.1075 48.0246 18.0888 48.5679 15.247L48.6537 14.8247L48.7753 14.3737C48.7753 14.3737 48.668 13.8512 48.6537 13.8011C48.6752 13.7724 48.7681 13.6507 48.7681 13.6507" fill="#5BB431"/>
<path d="M23.0363 6.3064C22.5001 6.3064 22.0354 6.3565 21.6779 6.46388L21.2632 6.6142L19.5401 7.25129L17.2236 8.11026C14.042 9.34864 11.2679 10.8519 8.97289 12.5842C7.23551 14.1733 6.01291 15.97 5.33369 17.917C5.33369 18.5756 5.30508 18.9979 5.25504 19.184C5.33368 19.8999 5.54103 20.494 5.86992 20.9736C6.17736 21.4317 6.43473 21.6608 6.63492 21.7037C6.62062 21.7753 6.60634 21.9042 6.60634 21.9042C6.60634 22.2764 6.76363 22.6272 7.07107 22.9278C8.48671 24.0516 10.1883 25.8269 12.1116 28.2249C12.6478 28.8978 12.9124 29.4919 12.9124 29.9858C12.9124 29.9858 12.8909 30.1862 12.8766 30.265C12.6264 30.4153 12.3976 30.5799 12.1688 30.7804C11.8399 31.0595 11.6469 31.3244 11.5968 31.5678C11.4896 31.6465 11.4181 31.7038 11.4181 31.7038C11.2894 31.804 11.175 31.9472 11.0606 32.119V32.1333L11.0535 32.4626C11.0106 32.4984 10.2169 33.1283 10.2169 33.1283L9.03723 33.9443C8.73695 34.1447 8.4295 34.2736 8.11492 34.3452C8.07917 34.3022 8.00052 34.2092 8.00052 34.2092C8.00052 34.2092 7.97191 34.1805 7.95046 34.1591C7.97906 34.0875 8.05772 33.973 8.29366 33.8083L9.6521 33.3359C9.95238 33.1712 10.0882 32.9565 10.0739 32.6988C10.0453 32.3623 9.84514 32.1762 9.4948 32.1762L9.07297 32.1905L3.66064 34.2736L2.70259 34.6386L1.87322 35.061L1.0939 35.4189L0.343194 35.9629C0.114403 36.192 0 36.5284 0 36.9865C0 37.28 0.0858078 37.5091 0.257401 37.6451C0.479041 37.8813 0.836519 38.0818 1.3227 38.2321L2.49526 38.59C3.16018 38.59 3.71784 38.5113 4.17542 38.3466L5.93427 37.731L7.25696 37.2085C7.90759 36.7647 8.82273 36.2779 9.96669 35.7482L12.4262 34.6029C13.1269 34.1591 13.6273 33.8155 13.9205 33.5792L14.5639 32.9923C14.7069 32.8634 14.8714 32.7417 15.0501 32.6272C15.3004 32.5914 15.5506 32.5628 15.8008 32.5485C16.0225 32.5485 16.3228 32.5055 16.6731 32.4554C17.3023 32.3552 18.0816 32.2407 18.768 32.3767H18.8037L18.8323 32.348L18.961 32.1905C19.1255 32.0474 19.2184 31.9973 19.2613 31.983L20.0192 32.0402L20.6269 32.1977H20.6555L20.8771 32.0903L21.1703 31.9114C21.4706 31.6537 21.6207 31.4389 21.635 31.2528C21.6422 31.1669 21.6136 31.0882 21.5564 31.0166H21.5421L21.5278 31.0023C20.0335 30.4153 18.7966 30.0001 17.8099 29.7639C17.7098 29.6995 17.5668 29.6494 17.3809 29.6422C17.4739 29.2557 17.5311 28.8405 17.5311 28.3967C17.5311 27.373 17.1093 26.2349 16.2799 25.0037L13.8561 22.1762C13.0911 21.2886 12.4333 20.3652 11.9043 19.4203C11.604 18.9049 11.4181 18.547 11.3251 18.3322C11.0677 17.7023 10.9319 17.0724 10.9319 16.4782C11.2679 15.4546 11.9829 14.4381 13.0482 13.4789C14.2208 12.4195 15.4505 11.6751 16.7017 11.2527L16.8232 11.2098C16.8232 11.2098 16.8948 11.2456 16.9734 11.3028C16.9377 11.5534 16.7375 11.7753 16.3728 11.9614L15.1288 12.5985C14.7284 12.8991 14.4925 13.164 14.3995 13.4074V13.5935C14.3995 13.9299 14.5926 14.1447 14.9858 14.2306C15.0072 14.2306 15.4648 14.1518 15.4648 14.1518C17.9243 13.3572 20.6555 11.9757 23.5797 10.0287C23.6584 10.0072 23.7299 9.9571 23.7799 9.89268C23.8228 9.82825 23.9158 9.64929 24.023 9.39876C24.2589 8.85473 24.4234 8.44672 24.5092 8.19618C24.5378 8.06017 24.5521 7.90983 24.5521 7.73088C24.5521 6.78599 24.0373 6.3064 23.0078 6.3064" fill="#2E2624"/>
<path d="M6.50612 7.82394C6.50612 7.82394 6.99945 9.24128 8.40795 8.77599C9.75209 8.32502 12.4618 7.87404 12.4904 7.86688H12.5047L14.3422 6.02721C14.3493 6.0129 15.7221 3.27846 15.7221 3.27846V3.26415V0.937726L14.3136 0H12.4618L10.1739 1.37437L7.87887 2.74876C7.87887 2.74876 7.44274 4.06587 7.42844 4.11598C7.29974 4.1804 5.97705 4.90339 5.97705 5.9986C5.97705 6.14176 5.9985 6.29209 6.04855 6.44957L6.50612 7.81677V7.82394Z" fill="#2E2624"/>
<path d="M70.5747 27.0008L68.5728 29.0338L63.0031 23.7367C61.5517 26.2564 59.3854 27.9958 57.3549 29.1197L55.4102 26.9507C59.8001 24.7603 61.5517 21.0882 61.5517 18.0101V12.6128H64.4545C64.4545 12.6128 64.6047 17.9314 64.1829 20.9307L70.5675 27.008L70.5747 27.0008ZM76.8307 36.643H73.9279V21.8398H67.8721V19.134H73.9279V11.854H76.8307V36.643Z" fill="#595A52"/>
<path d="M102.033 24.925H91.9022V26.3423H97.0571V32.8419H86.8545V34.0374H97.7149V36.6358H83.9517V30.2363H94.1544V28.9407H83.9517V26.3423H88.9994V24.925H79.0542V22.2263H102.033V24.925Z" fill="#595A52"/>
<path d="M126.686 27.2728H116.469V36.643H113.566V27.2728H103.764V24.567H126.686V27.2728ZM123.819 21.0452L121.895 23.1855L115.532 19.678C113.337 21.2313 110.677 22.4625 107.968 23.1068L106.102 20.8018C110.87 19.7281 114.517 17.2656 116.326 15.2327H107.825V12.6128H121.037C120.737 14.3522 119.557 16.1704 117.856 17.8025L123.804 21.0452H123.819Z" fill="#595A52"/>
<path d="M139.591 24.8963H128.63V12.6128H138.332V15.3186H131.54V17.2728H138.332V19.9786H131.54V22.2263H139.598V24.9035L139.591 24.8963ZM149.079 36.643H146.147V30.4368H134.765V27.7095H149.079V36.643ZM149.079 26.5141H146.169V19.8211H143.745V26.0058H140.842V11.854H143.745V17.1225H146.169V11.854H149.079V26.5141Z" fill="#595A52"/>
<path d="M173.688 32.2979H150.98V29.5921H160.918V25.5764H163.821V29.5921H173.681V32.2979H173.688ZM169.512 24.066H155.67V12.6128H169.512V15.29H158.573V21.3387H169.512V24.066Z" fill="#595A52"/>
<path d="M194.422 11.854H191.519V36.643H194.422V11.854Z" fill="#595A52"/>
<path d="M266.269 25.7625H243.319V23.0853H252.184V18.7188H255.087V23.0853H266.262V25.7625H266.269ZM261.536 12.6128C261.536 16.9722 261.343 19.5992 260.607 22.2191H257.561C258.247 20.0001 258.469 17.1082 258.519 15.3401H247.88V12.6128H261.536Z" fill="#595A52"/>
<path d="M291 22.2692H286.474V36.6358H283.571V11.854H286.474V19.5634H291V22.2692Z" fill="#595A52"/>
<path d="M189.174 27.0008L187.172 29.0338L181.602 23.7367C180.151 26.2564 177.985 27.9958 175.954 29.1197L174.009 26.9507C178.399 24.7531 180.151 21.0881 180.151 18.0101V12.6128H183.054C183.054 12.6128 183.204 17.9314 182.782 20.9306L189.167 27.008L189.174 27.0008Z" fill="#595A52"/>
<path d="M282.027 27.0008L280.025 29.0338L274.456 23.7367C273.004 26.2564 270.838 27.9958 268.807 29.1197L266.863 26.9507C271.252 24.7531 273.004 21.0881 273.004 18.0101V12.6128H275.907C275.907 12.6128 276.057 17.9314 275.635 20.9306L282.02 27.008L282.027 27.0008Z" fill="#595A52"/>
<path d="M90.5509 11.0595C86.9975 11.0595 84.1233 13.4002 84.1233 16.2778C84.1233 19.1554 87.0046 21.4962 90.5509 21.4962C94.0971 21.4962 96.9785 19.1626 96.9785 16.2778C96.9785 13.393 94.0971 11.0595 90.5509 11.0595ZM90.5509 18.8906C88.6491 18.8906 87.1119 17.7166 87.1119 16.2778C87.1119 14.839 88.6491 13.6651 90.5509 13.6651C92.4527 13.6651 93.9899 14.839 93.9899 16.2778C93.9899 17.7166 92.4527 18.8906 90.5509 18.8906Z" fill="#595A52"/>
<path d="M254.687 26.8505C251.133 26.8505 248.259 29.1841 248.259 32.0689C248.259 34.9536 251.14 37.2872 254.687 37.2872C258.233 37.2872 261.114 34.9536 261.114 32.0689C261.114 29.1841 258.233 26.8505 254.687 26.8505ZM254.687 34.6816C252.785 34.6816 251.248 33.5077 251.248 32.0689C251.248 30.6301 252.785 29.4561 254.687 29.4561C256.588 29.4561 258.126 30.6301 258.126 32.0689C258.126 33.5077 256.588 34.6816 254.687 34.6816Z" fill="#595A52"/>
<path d="M208.371 14.9178C207.892 21.3888 204.775 26.421 199.019 30.0073L196.91 28.2321C201.622 25.2113 204.317 21.5964 204.989 17.3945H198.204V14.9249H208.364L208.371 14.9178ZM212.668 20.4797H214.891V11.7538H217.866V36.1848H214.891V22.9493H212.668V34.5886H209.779V12.2692H212.668V20.4797Z" fill="#595A52"/>
<path d="M232.987 24.2091H221.44V13.0065H224.443V16.2492H229.984V13.0065H232.987V24.2091ZM229.991 21.7396V18.7045H224.45V21.7396H229.991ZM239.858 36.5714H226.059V29.8999H236.133V28.3537H225.945V25.9056H239.193V32.2908H229.119V34.1161H239.858V36.5642V36.5714ZM243.154 19.7853H239.2V24.9321H236.14V11.7467H239.2V17.1297H243.154V19.7782V19.7853Z" fill="#595A52"/>
<path d="M70.5747 27.0008L68.5728 29.0338L63.0031 23.7367C61.5517 26.2564 59.3854 27.9958 57.3549 29.1197L55.4102 26.9507C59.8001 24.7603 61.5517 21.0882 61.5517 18.0101V12.6128H64.4545C64.4545 12.6128 64.6047 17.9314 64.1829 20.9307L70.5675 27.008L70.5747 27.0008ZM76.8307 36.643H73.9279V21.8398H67.8721V19.134H73.9279V11.854H76.8307V36.643Z" fill="#595A52"/>
<path d="M102.033 24.925H91.9022V26.3423H97.0571V32.8419H86.8545V34.0374H97.7149V36.6358H83.9517V30.2363H94.1544V28.9407H83.9517V26.3423H88.9994V24.925H79.0542V22.2263H102.033V24.925Z" fill="#595A52"/>
<path d="M126.686 27.2728H116.469V36.643H113.566V27.2728H103.764V24.567H126.686V27.2728ZM123.819 21.0452L121.895 23.1855L115.532 19.678C113.337 21.2313 110.677 22.4625 107.968 23.1068L106.102 20.8018C110.87 19.7281 114.517 17.2656 116.326 15.2327H107.825V12.6128H121.037C120.737 14.3522 119.557 16.1704 117.856 17.8025L123.804 21.0452H123.819Z" fill="#595A52"/>
<path d="M139.591 24.8963H128.63V12.6128H138.332V15.3186H131.54V17.2728H138.332V19.9786H131.54V22.2263H139.598V24.9035L139.591 24.8963ZM149.079 36.643H146.147V30.4368H134.765V27.7095H149.079V36.643ZM149.079 26.5141H146.169V19.8211H143.745V26.0058H140.842V11.854H143.745V17.1225H146.169V11.854H149.079V26.5141Z" fill="#595A52"/>
<path d="M173.688 32.2979H150.98V29.5921H160.918V25.5764H163.821V29.5921H173.681V32.2979H173.688ZM169.512 24.066H155.67V12.6128H169.512V15.29H158.573V21.3387H169.512V24.066Z" fill="#595A52"/>
<path d="M194.422 11.854H191.519V36.643H194.422V11.854Z" fill="#595A52"/>
<path d="M266.269 25.7625H243.319V23.0853H252.184V18.7188H255.087V23.0853H266.262V25.7625H266.269ZM261.536 12.6128C261.536 16.9722 261.343 19.5992 260.607 22.2191H257.561C258.247 20.0001 258.469 17.1082 258.519 15.3401H247.88V12.6128H261.536Z" fill="#595A52"/>
<path d="M291 22.2692H286.474V36.6358H283.571V11.854H286.474V19.5634H291V22.2692Z" fill="#595A52"/>
<path d="M189.174 27.0008L187.172 29.0338L181.602 23.7367C180.151 26.2564 177.985 27.9958 175.954 29.1197L174.009 26.9507C178.399 24.7531 180.151 21.0881 180.151 18.0101V12.6128H183.054C183.054 12.6128 183.204 17.9314 182.782 20.9306L189.167 27.008L189.174 27.0008Z" fill="#595A52"/>
<path d="M282.027 27.0008L280.025 29.0338L274.456 23.7367C273.004 26.2564 270.838 27.9958 268.807 29.1197L266.863 26.9507C271.252 24.7531 273.004 21.0881 273.004 18.0101V12.6128H275.907C275.907 12.6128 276.057 17.9314 275.635 20.9306L282.02 27.008L282.027 27.0008Z" fill="#595A52"/>
<path d="M90.5509 11.0595C86.9975 11.0595 84.1233 13.4002 84.1233 16.2778C84.1233 19.1554 87.0046 21.4962 90.5509 21.4962C94.0971 21.4962 96.9785 19.1626 96.9785 16.2778C96.9785 13.393 94.0971 11.0595 90.5509 11.0595ZM90.5509 18.8906C88.6491 18.8906 87.1119 17.7166 87.1119 16.2778C87.1119 14.839 88.6491 13.6651 90.5509 13.6651C92.4527 13.6651 93.9899 14.839 93.9899 16.2778C93.9899 17.7166 92.4527 18.8906 90.5509 18.8906Z" fill="#595A52"/>
<path d="M254.687 26.8505C251.133 26.8505 248.259 29.1841 248.259 32.0689C248.259 34.9536 251.14 37.2872 254.687 37.2872C258.233 37.2872 261.114 34.9536 261.114 32.0689C261.114 29.1841 258.233 26.8505 254.687 26.8505ZM254.687 34.6816C252.785 34.6816 251.248 33.5077 251.248 32.0689C251.248 30.6301 252.785 29.4561 254.687 29.4561C256.588 29.4561 258.126 30.6301 258.126 32.0689C258.126 33.5077 256.588 34.6816 254.687 34.6816Z" fill="#595A52"/>
<path d="M208.371 14.9178C207.892 21.3888 204.775 26.421 199.019 30.0073L196.91 28.2321C201.622 25.2113 204.317 21.5964 204.989 17.3945H198.204V14.9249H208.364L208.371 14.9178ZM212.668 20.4797H214.891V11.7538H217.866V36.1848H214.891V22.9493H212.668V34.5886H209.779V12.2692H212.668V20.4797Z" fill="#595A52"/>
<path d="M232.987 24.2091H221.44V13.0065H224.443V16.2492H229.984V13.0065H232.987V24.2091ZM229.991 21.7396V18.7045H224.45V21.7396H229.991ZM239.858 36.5714H226.059V29.8999H236.133V28.3537H225.945V25.9056H239.193V32.2908H229.119V34.1161H239.858V36.5642V36.5714ZM243.154 19.7853H239.2V24.9321H236.14V11.7467H239.2V17.1297H243.154V19.7782V19.7853Z" fill="#595A52"/>
</svg>
